<svg width="36" height="36" viewBox="0 0 36 36" fill="none" xmlns="http://www.w3.org/2000/svg">
<path fill-rule="evenodd" clip-rule="evenodd" d="M22.1275 9.52738C22.465 9.18993 22.9228 9.00037 23.4001 9.00037C23.8774 9.00037 24.3351 9.18993 24.6727 9.52738L31.8727 16.7274C32.2101 17.0649 32.3997 17.5227 32.3997 18C32.3997 18.4773 32.2101 18.935 31.8727 19.2726L24.6727 26.4726C24.3332 26.8005 23.8785 26.9819 23.4066 26.9778C22.9346 26.9737 22.4832 26.7844 22.1494 26.4507C21.8157 26.1169 21.6264 25.6655 21.6223 25.1935C21.6182 24.7215 21.7996 24.2669 22.1275 23.9274L26.2549 19.8H5.4001C4.92271 19.8 4.46487 19.6103 4.12731 19.2728C3.78974 18.9352 3.6001 18.4774 3.6001 18C3.6001 17.5226 3.78974 17.0648 4.12731 16.7272C4.46487 16.3896 4.92271 16.2 5.4001 16.2H26.2549L22.1275 12.0726C21.7901 11.735 21.6005 11.2773 21.6005 10.8C21.6005 10.3227 21.7901 9.86493 22.1275 9.52738Z" fill="#111827"/>
</svg>
