<svg width="44" height="31" viewBox="0 0 44 31" fill="none" xmlns="http://www.w3.org/2000/svg">
<path d="M3.09313 27.6754H0.181885V11.7835H2.96656V14.3781H3.09313C3.38847 13.5349 3.98971 12.8214 4.89684 12.2376C5.82506 11.6322 6.73219 11.3295 7.61823 11.3295C8.46207 11.3295 9.17932 11.4592 9.77002 11.7187L8.88399 14.6051C8.52536 14.4538 7.95577 14.3781 7.17521 14.3781C6.07821 14.3781 5.11835 14.8322 4.29561 15.7403C3.49397 16.6484 3.09313 17.7079 3.09313 18.9187V27.6754ZM8.90772 22.8106C8.90772 23.5889 9.22416 24.2376 9.85704 24.7565C10.511 25.2754 11.2705 25.5349 12.1354 25.5349C13.359 25.5349 14.4454 25.07 15.3947 24.1403C16.3652 23.2105 16.8504 22.1187 16.8504 20.8646C15.9432 20.1295 14.6775 19.7619 13.0531 19.7619C11.8717 19.7619 10.8802 20.0538 10.0785 20.6376C9.29799 21.2214 8.90772 21.9457 8.90772 22.8106ZM12.6734 11.2646C14.8251 11.2646 16.5234 11.8592 17.768 13.0484C19.0127 14.216 19.635 15.8268 19.635 17.8808V27.6754H16.8504V25.47H16.7238C15.5213 27.2862 13.918 28.1943 11.9139 28.1943C10.2051 28.1943 8.7706 27.6754 7.61032 26.6376C6.47113 25.5997 5.90154 24.3024 5.90154 22.7457C5.90154 21.1024 6.50278 19.7943 7.70525 18.8214C8.92882 17.8484 10.5532 17.3619 12.5784 17.3619C14.3083 17.3619 15.7323 17.6862 16.8504 18.3349V17.6538C16.8504 16.616 16.4495 15.7403 15.6479 15.0268C14.8463 14.2916 13.9075 13.9241 12.8316 13.9241C11.2072 13.9241 9.92033 14.6268 8.97101 16.0322L6.40784 14.3781C7.82128 12.3024 9.90979 11.2646 12.6734 11.2646ZM25.7982 4.19434C26.8529 4.19434 27.718 4.37812 28.393 4.74569L27.6019 7.37272C27.0956 7.11326 26.526 6.98353 25.8931 6.98353C25.1758 6.98353 24.5853 7.24299 24.1211 7.7619C23.678 8.25919 23.4565 8.92947 23.4565 9.77272V11.7835H27.507V14.5079H23.4565V27.6754H20.5453V14.5079H17.634V11.7835H20.5453V9.48082C20.5453 7.90244 21.0305 6.62677 22.0009 5.6538C22.9924 4.68082 24.2582 4.19434 25.7982 4.19434ZM24.1896 19.7295C24.1896 17.2862 24.9385 15.2646 26.4362 13.6646C27.9551 12.0646 29.8645 11.2646 32.1638 11.2646C34.4633 11.2646 36.3619 12.0646 37.8597 13.6646C39.3786 15.2646 40.138 17.2862 40.138 19.7295C40.138 22.1943 39.3786 24.2159 37.8597 25.7943C36.3619 27.3943 34.4633 28.1943 32.1638 28.1943C29.8645 28.1943 27.9551 27.3943 26.4362 25.7943C24.9385 24.1943 24.1896 22.1727 24.1896 19.7295ZM27.1007 19.7295C27.1007 21.4376 27.5861 22.8214 28.5563 23.8808C29.5268 24.9403 30.7293 25.47 32.1638 25.47C33.5984 25.47 34.8009 24.9403 35.7712 23.8808C36.7417 22.8214 37.2268 21.4376 37.2268 19.7295C37.2268 18.043 36.7417 16.67 35.7712 15.6106C34.7797 14.5295 33.5773 13.9889 32.1638 13.9889C30.7505 13.9889 29.548 14.5295 28.5563 15.6106C27.5861 16.67 27.1007 18.043 27.1007 19.7295ZM43.8182 25.6646C43.8182 26.27 43.6072 26.7889 43.1854 27.2214C42.7845 27.6538 42.2782 27.87 41.6665 27.87C41.0757 27.87 40.5694 27.6538 40.1475 27.2214C39.7257 26.7889 39.5147 26.27 39.5147 25.6646C39.5147 25.0376 39.7257 24.5187 40.1475 24.1078C40.5694 23.6754 41.0757 23.4592 41.6665 23.4592C42.2782 23.4592 42.7845 23.6754 43.1854 24.1078C43.6072 24.5187 43.8182 25.0376 43.8182 25.6646Z" fill="#F9FAFB"/>
</svg>
